<?xml version="1.0" standalone="no"?>
<!DOCTYPE svg PUBLIC "-//W3C//DTD SVG 20010904//EN"
 "http://www.w3.org/TR/2001/REC-SVG-20010904/DTD/svg10.dtd">
<svg version="1.0" xmlns="http://www.w3.org/2000/svg"
 width="331.000000pt" height="331.000000pt" viewBox="0 0 331.000000 331.000000"
 preserveAspectRatio="xMidYMid meet">

<g transform="translate(0.000000,331.000000) scale(0.100000,-0.100000)"
fill="#000000" stroke="none">
<path d="M275 3207 c-60 -24 -93 -47 -124 -86 -65 -82 -62 9 -59 -1486 3
-1279 4 -1362 21 -1392 28 -52 77 -102 121 -126 l41 -22 1380 0 1380 0 41 22
c23 12 58 41 78 64 71 83 67 -15 64 1495 l-3 1359 -22 41 c-24 44 -74 93 -126
121 -30 17 -112 18 -1397 20 -1031 1 -1372 -1 -1395 -10z m1922 -782 c66 -20
131 -69 160 -120 59 -103 72 -227 73 -645 0 -359 -11 -518 -41 -615 -12 -39
-21 -71 -20 -73 5 -10 -95 -96 -131 -111 -64 -29 -171 -45 -257 -38 -205 16
-297 93 -335 280 -23 110 -25 944 -2 1057 34 172 96 241 250 276 75 17 230 12
303 -11z m-810 -787 l-2 -783 -155 0 -155 0 0 576 0 576 -40 -32 c-41 -33
-116 -75 -135 -75 -6 0 -10 51 -10 144 0 137 1 145 21 151 33 11 142 119 174
174 l30 51 137 0 137 0 -2 -782z"/>
<path d="M1988 2240 c-35 -21 -40 -97 -36 -641 3 -563 2 -550 53 -569 26 -10
70 13 81 42 12 37 17 1028 5 1095 -14 76 -52 102 -103 73z"/>
</g>
</svg>
