<svg version="1.1" id="Layer_1" xmlns="http://www.w3.org/2000/svg" xmlns:xlink="http://www.w3.org/1999/xlink" x="0px" y="0px"
	 width="100%" viewBox="0 0 331 331" enable-background="new 0 0 331 331" xml:space="preserve">
<path fill="#FFFEF9" opacity="1.000000" stroke="none" 
	d="
M332.000000,84.000000 
	C332.000000,166.968857 332.000000,249.437698 332.000000,331.953278 
	C221.739502,331.953278 111.478966,331.953278 1.109220,331.953278 
	C1.109220,221.781235 1.109220,111.562332 1.109220,1.171712 
	C111.333107,1.171712 221.666534,1.171712 332.000000,1.171712 
	C332.000000,28.520935 332.000000,56.010468 332.000000,84.000000 
M17.544853,17.546709 
	C17.544853,17.546709 17.447504,17.642042 16.857834,17.880772 
	C11.285789,23.105049 9.060016,29.628763 9.061929,37.159607 
	C9.083822,123.315475 9.058494,209.471359 9.088377,295.627228 
	C9.089235,298.101105 9.235565,300.661072 9.865916,303.034332 
	C13.346746,316.139679 23.526834,323.840851 37.425472,323.847839 
	C117.248795,323.888000 197.072144,323.883972 276.895477,323.891815 
	C283.727844,323.892487 290.567749,324.066071 297.390442,323.803253 
	C304.198547,323.541046 310.499451,321.749542 315.320465,315.671265 
	C315.587097,315.460571 315.789185,315.199829 316.586670,314.729828 
	C322.114197,309.383667 323.893799,302.671570 323.891205,295.219177 
	C323.861267,209.578201 323.878296,123.937233 323.840118,38.296280 
	C323.832092,20.287193 312.475006,9.071105 294.442078,9.067159 
	C253.954178,9.058298 213.466263,9.054110 172.978363,9.056164 
	C127.491974,9.058472 82.005562,9.048591 36.519218,9.098235 
	C29.058617,9.106378 22.454193,11.323498 17.544853,17.546709 
z"/>
<path fill="#FFCC05" opacity="1.000000" stroke="none" 
	d="
M315.926697,314.889069 
	C315.789185,315.199829 315.587097,315.460571 314.742798,315.808289 
	C306.898956,320.242615 299.241730,322.201111 290.607452,322.179382 
	C206.341019,321.967255 122.073074,321.871185 37.807549,322.220581 
	C23.083443,322.281586 10.946095,309.671814 10.951560,295.483917 
	C10.984600,209.718124 10.952728,123.952309 11.016747,38.186562 
	C11.021605,31.679720 11.946820,25.312889 16.928673,20.323238 
	C17.461876,19.789202 17.291498,18.552685 17.447506,17.642042 
	C17.447504,17.642042 17.544853,17.546709 17.949060,17.640842 
	C27.256737,10.448087 37.892174,10.922133 48.453522,10.969247 
	C59.778858,11.019771 71.104591,10.981413 82.430153,10.981213 
	C152.881821,10.979965 223.333481,10.974515 293.785156,10.980195 
	C310.042908,10.981506 322.023651,21.537987 322.028198,36.014465 
	C322.055481,122.788269 322.105194,209.562271 321.859711,296.335388 
	C321.846436,301.036041 319.285156,305.742950 317.818634,310.418304 
	C317.336609,311.955170 316.565613,313.401398 315.926697,314.889069 
M223.499817,245.757782 
	C230.435150,245.757782 237.370499,245.757782 244.823166,245.757782 
	C244.823166,238.777512 244.619614,232.479156 244.898727,226.202255 
	C245.068924,222.374542 243.615768,221.353683 239.994827,221.397400 
	C226.507904,221.560272 213.017868,221.479401 199.529068,221.454330 
	C197.847275,221.451218 196.165894,221.234879 193.555283,221.052399 
	C203.302460,207.251541 211.851852,193.935852 221.622635,181.586548 
	C237.623306,161.363220 245.591812,139.345657 241.071274,113.343254 
	C238.552109,98.852882 232.413116,91.227325 218.132431,88.049133 
	C207.125000,85.599411 196.048538,85.902374 184.998581,88.579056 
	C174.528397,91.115295 167.936996,97.565041 165.559677,107.808960 
	C164.068359,114.235062 163.836060,120.953255 163.037170,127.540184 
	C162.669968,130.567734 164.018921,131.697189 167.034286,131.649872 
	C174.858887,131.527084 182.690292,131.459503 190.511368,131.662933 
	C194.084244,131.755859 194.964417,130.385040 195.054138,126.992447 
	C195.198181,121.545311 195.498932,115.990463 196.795181,110.743416 
	C197.279953,108.781181 200.934738,106.108536 202.790329,106.360962 
	C205.050735,106.668449 208.375534,109.468857 208.749496,111.623260 
	C210.900360,124.014748 212.187714,136.815216 205.527252,148.173706 
	C197.129166,162.495453 188.091766,176.494370 178.537613,190.074951 
	C160.568924,215.616272 160.332703,215.450073 160.534561,239.635422 
	C160.535950,239.801956 160.554688,239.970963 160.533386,240.134659 
	C159.984772,244.349075 161.497253,245.933975 166.047073,245.872620 
	C184.861786,245.618958 203.681824,245.760834 223.499817,245.757782 
M108.118553,179.500000 
	C108.117348,199.991943 108.187317,220.484390 108.048622,240.975403 
	C108.023979,244.616745 109.027115,246.005249 112.848114,245.853455 
	C119.667450,245.582520 126.522064,245.521759 133.331192,245.911011 
	C137.845261,246.169052 138.905060,244.607086 138.891556,240.267319 
	C138.741226,191.953262 138.790756,143.638565 138.786392,95.324051 
	C138.786224,93.391464 138.786362,91.458878 138.786362,89.048409 
	C130.060074,89.048409 122.091599,88.929855 114.134109,89.172302 
	C112.896797,89.209999 111.206032,90.639023 110.580734,91.862144 
	C106.356987,100.124062 100.075462,106.343468 92.337257,111.280777 
	C91.153214,112.036247 89.517593,113.353333 89.488205,114.448181 
	C89.254242,123.162987 89.357765,131.886856 89.357765,142.254013 
	C96.252708,138.198212 101.783928,134.944580 108.118744,131.218246 
	C108.118744,147.608047 108.118744,163.054016 108.118553,179.500000 
z"/>
<path fill="#F8D24D" opacity="1.000000" stroke="none" 
	d="
M17.152670,17.761406 
	C17.291498,18.552685 17.461876,19.789202 16.928673,20.323238 
	C11.946820,25.312889 11.021605,31.679720 11.016747,38.186562 
	C10.952728,123.952309 10.984600,209.718124 10.951560,295.483917 
	C10.946095,309.671814 23.083443,322.281586 37.807549,322.220581 
	C122.073074,321.871185 206.341019,321.967255 290.607452,322.179382 
	C299.241730,322.201111 306.898956,320.242615 314.529449,315.937378 
	C310.499451,321.749542 304.198547,323.541046 297.390442,323.803253 
	C290.567749,324.066071 283.727844,323.892487 276.895477,323.891815 
	C197.072144,323.883972 117.248795,323.888000 37.425472,323.847839 
	C23.526834,323.840851 13.346746,316.139679 9.865916,303.034332 
	C9.235565,300.661072 9.089235,298.101105 9.088377,295.627228 
	C9.058494,209.471359 9.083822,123.315475 9.061929,37.159607 
	C9.060016,29.628763 11.285789,23.105049 17.152670,17.761406 
z"/>
<path fill="#F8D24D" opacity="1.000000" stroke="none" 
	d="
M316.256683,314.809448 
	C316.565613,313.401398 317.336609,311.955170 317.818634,310.418304 
	C319.285156,305.742950 321.846436,301.036041 321.859711,296.335388 
	C322.105194,209.562271 322.055481,122.788269 322.028198,36.014465 
	C322.023651,21.537987 310.042908,10.981506 293.785156,10.980195 
	C223.333481,10.974515 152.881821,10.979965 82.430153,10.981213 
	C71.104591,10.981413 59.778858,11.019771 48.453522,10.969247 
	C37.892174,10.922133 27.256737,10.448087 17.996819,17.592260 
	C22.454193,11.323498 29.058617,9.106378 36.519218,9.098235 
	C82.005562,9.048591 127.491974,9.058472 172.978363,9.056164 
	C213.466263,9.054110 253.954178,9.058298 294.442078,9.067159 
	C312.475006,9.071105 323.832092,20.287193 323.840118,38.296280 
	C323.878296,123.937233 323.861267,209.578201 323.891205,295.219177 
	C323.893799,302.671570 322.114197,309.383667 316.256683,314.809448 
z"/>
<path fill="#FFFEF7" opacity="1.000000" stroke="none" 
	d="
M222.999863,245.757599 
	C203.681824,245.760834 184.861786,245.618958 166.047073,245.872620 
	C161.497253,245.933975 159.984772,244.349075 160.533386,240.134659 
	C160.554688,239.970963 160.535950,239.801956 160.534561,239.635422 
	C160.332703,215.450073 160.568924,215.616272 178.537613,190.074951 
	C188.091766,176.494370 197.129166,162.495453 205.527252,148.173706 
	C212.187714,136.815216 210.900360,124.014748 208.749496,111.623260 
	C208.375534,109.468857 205.050735,106.668449 202.790329,106.360962 
	C200.934738,106.108536 197.279953,108.781181 196.795181,110.743416 
	C195.498932,115.990463 195.198181,121.545311 195.054138,126.992447 
	C194.964417,130.385040 194.084244,131.755859 190.511368,131.662933 
	C182.690292,131.459503 174.858887,131.527084 167.034286,131.649872 
	C164.018921,131.697189 162.669968,130.567734 163.037170,127.540184 
	C163.836060,120.953255 164.068359,114.235062 165.559677,107.808960 
	C167.936996,97.565041 174.528397,91.115295 184.998581,88.579056 
	C196.048538,85.902374 207.125000,85.599411 218.132431,88.049133 
	C232.413116,91.227325 238.552109,98.852882 241.071274,113.343254 
	C245.591812,139.345657 237.623306,161.363220 221.622635,181.586548 
	C211.851852,193.935852 203.302460,207.251541 193.555283,221.052399 
	C196.165894,221.234879 197.847275,221.451218 199.529068,221.454330 
	C213.017868,221.479401 226.507904,221.560272 239.994827,221.397400 
	C243.615768,221.353683 245.068924,222.374542 244.898727,226.202255 
	C244.619614,232.479156 244.823166,238.777512 244.823166,245.757782 
	C237.370499,245.757782 230.435150,245.757782 222.999863,245.757599 
z"/>
<path fill="#FFFDF5" opacity="1.000000" stroke="none" 
	d="
M108.118652,179.000000 
	C108.118744,163.054016 108.118744,147.608047 108.118744,131.218246 
	C101.783928,134.944580 96.252708,138.198212 89.357765,142.254013 
	C89.357765,131.886856 89.254242,123.162987 89.488205,114.448181 
	C89.517593,113.353333 91.153214,112.036247 92.337257,111.280777 
	C100.075462,106.343468 106.356987,100.124062 110.580734,91.862144 
	C111.206032,90.639023 112.896797,89.209999 114.134109,89.172302 
	C122.091599,88.929855 130.060074,89.048409 138.786362,89.048409 
	C138.786362,91.458878 138.786224,93.391464 138.786392,95.324051 
	C138.790756,143.638565 138.741226,191.953262 138.891556,240.267319 
	C138.905060,244.607086 137.845261,246.169052 133.331192,245.911011 
	C126.522064,245.521759 119.667450,245.582520 112.848114,245.853455 
	C109.027115,246.005249 108.023979,244.616745 108.048622,240.975403 
	C108.187317,220.484390 108.117348,199.991943 108.118652,179.000000 
z"/>
</svg>