<svg version="1.1" id="Layer_1" xmlns="http://www.w3.org/2000/svg" xmlns:xlink="http://www.w3.org/1999/xlink" x="0px" y="0px"
	 width="100%" viewBox="0 0 331 331" enable-background="new 0 0 331 331" xml:space="preserve">
<path fill="#FFFEFB" opacity="1.000000" stroke="none" 
	d="
M191.000000,332.000000 
	C127.333344,332.000000 64.166687,332.000000 1.000025,332.000000 
	C1.000017,221.666702 1.000017,111.333397 1.000008,1.000070 
	C111.333282,1.000046 221.666565,1.000046 331.999878,1.000023 
	C331.999939,111.333260 331.999939,221.666519 331.999969,331.999878 
	C285.166656,332.000000 238.333328,332.000000 191.000000,332.000000 
M160.499969,323.709778 
	C204.664963,323.716827 248.829971,323.729462 292.994965,323.728424 
	C312.647156,323.727966 323.721954,312.679352 323.721558,293.051239 
	C323.719879,208.387329 323.710419,123.723419 323.690887,39.059509 
	C323.686646,20.624472 312.170074,9.227617 293.615143,9.228683 
	C209.284531,9.233532 124.953926,9.236494 40.623318,9.244414 
	C19.884544,9.246363 9.242355,19.852081 9.240050,40.566944 
	C9.230701,124.564224 9.251978,208.561493 9.224966,292.558777 
	C9.218571,312.446594 20.215967,323.677490 40.003803,323.691132 
	C79.835838,323.718658 119.667915,323.705688 160.499969,323.709778 
z"/>
<path fill="#F58321" opacity="1.000000" stroke="none" 
	d="
M159.999969,323.709595 
	C119.667915,323.705688 79.835838,323.718658 40.003803,323.691132 
	C20.215967,323.677490 9.218571,312.446594 9.224966,292.558777 
	C9.251978,208.561493 9.230701,124.564224 9.240050,40.566944 
	C9.242355,19.852081 19.884544,9.246363 40.623318,9.244414 
	C124.953926,9.236494 209.284531,9.233532 293.615143,9.228683 
	C312.170074,9.227617 323.686646,20.624472 323.690887,39.059509 
	C323.710419,123.723419 323.719879,208.387329 323.721558,293.051239 
	C323.721954,312.679352 312.647156,323.727966 292.994965,323.728424 
	C248.829971,323.729462 204.664963,323.716827 159.999969,323.709595 
M169.544205,210.523758 
	C177.701996,210.525925 185.864227,210.686829 194.015533,210.457916 
	C197.655334,210.355698 199.107727,211.380966 198.928070,215.204895 
	C198.654922,221.019119 198.857193,226.855698 198.857376,232.682770 
	C198.857513,236.585739 198.857407,240.488724 198.857407,244.758179 
	C208.383881,244.758179 217.017258,244.705887 225.649399,244.786606 
	C228.659409,244.814743 228.663010,242.933426 228.655991,240.806198 
	C228.627457,232.148895 228.736435,223.489548 228.573914,214.835098 
	C228.513840,211.635941 229.523132,210.326355 232.843491,210.482086 
	C237.435150,210.697433 242.044479,210.536133 246.836182,210.536133 
	C246.836182,202.246979 246.836182,194.867233 246.836182,186.919571 
	C240.732361,186.919571 234.985779,186.919571 228.653534,186.919571 
	C228.653534,184.574036 228.653961,182.796402 228.653427,181.018784 
	C228.644592,151.716904 228.561691,122.414635 228.713028,93.113579 
	C228.733780,89.097000 227.493134,87.978607 223.588760,88.063919 
	C212.772110,88.300285 201.940445,88.370216 191.128586,88.044785 
	C186.849930,87.916008 185.051819,89.320015 183.847366,93.386261 
	C177.846008,113.646767 171.265656,133.737930 165.417389,154.040878 
	C161.261780,168.467621 154.890701,182.341309 156.114075,198.131409 
	C157.069382,210.461639 156.297714,210.521423 169.544205,210.523758 
M135.137833,104.501999 
	C135.137833,99.234665 135.137833,93.967339 135.137833,88.182182 
	C126.492699,88.182182 118.540581,88.051270 110.602539,88.326317 
	C109.440018,88.366592 108.217667,90.235580 107.240356,91.435448 
	C103.481277,96.050583 100.700195,102.235161 95.916336,105.077194 
	C86.777557,110.506432 85.252083,117.888550 86.245651,127.186737 
	C86.672112,131.177689 86.317017,135.252151 86.317017,139.288681 
	C86.880005,139.565796 87.443001,139.842926 88.005989,140.120041 
	C93.520744,136.686920 99.035500,133.253799 105.187439,129.423996 
	C105.187439,168.029785 105.187439,206.187515 105.187439,244.490051 
	C115.399117,244.490051 124.978683,244.490051 135.137955,244.490051 
	C135.137955,197.967789 135.137955,151.734619 135.137833,104.501999 
z"/>
<path fill="#FEFCF8" opacity="1.000000" stroke="none" 
	d="
M169.054153,210.523621 
	C156.297714,210.521423 157.069382,210.461639 156.114075,198.131409 
	C154.890701,182.341309 161.261780,168.467621 165.417389,154.040878 
	C171.265656,133.737930 177.846008,113.646767 183.847366,93.386261 
	C185.051819,89.320015 186.849930,87.916008 191.128586,88.044785 
	C201.940445,88.370216 212.772110,88.300285 223.588760,88.063919 
	C227.493134,87.978607 228.733780,89.097000 228.713028,93.113579 
	C228.561691,122.414635 228.644592,151.716904 228.653427,181.018784 
	C228.653961,182.796402 228.653534,184.574036 228.653534,186.919571 
	C234.985779,186.919571 240.732361,186.919571 246.836182,186.919571 
	C246.836182,194.867233 246.836182,202.246979 246.836182,210.536133 
	C242.044479,210.536133 237.435150,210.697433 232.843491,210.482086 
	C229.523132,210.326355 228.513840,211.635941 228.573914,214.835098 
	C228.736435,223.489548 228.627457,232.148895 228.655991,240.806198 
	C228.663010,242.933426 228.659409,244.814743 225.649399,244.786606 
	C217.017258,244.705887 208.383881,244.758179 198.857407,244.758179 
	C198.857407,240.488724 198.857513,236.585739 198.857376,232.682770 
	C198.857193,226.855698 198.654922,221.019119 198.928070,215.204895 
	C199.107727,211.380966 197.655334,210.355698 194.015533,210.457916 
	C185.864227,210.686829 177.701996,210.525925 169.054153,210.523621 
M201.322037,115.799271 
	C201.196213,114.314125 201.070374,112.828979 200.944550,111.343834 
	C200.429001,111.305016 199.913437,111.266205 199.397873,111.227386 
	C192.791748,136.261963 186.185623,161.296539 179.397949,187.019104 
	C185.064987,187.019104 189.726639,186.725571 194.333008,187.104385 
	C198.653778,187.459717 200.039627,186.175095 200.081345,181.669174 
	C200.281754,160.023071 200.862061,138.380493 201.322037,115.799271 
z"/>
<path fill="#FFFDFA" opacity="1.000000" stroke="none" 
	d="
M135.137894,105.001732 
	C135.137955,151.734619 135.137955,197.967789 135.137955,244.490051 
	C124.978683,244.490051 115.399117,244.490051 105.187439,244.490051 
	C105.187439,206.187515 105.187439,168.029785 105.187439,129.423996 
	C99.035500,133.253799 93.520744,136.686920 88.005989,140.120041 
	C87.443001,139.842926 86.880005,139.565796 86.317017,139.288681 
	C86.317017,135.252151 86.672112,131.177689 86.245651,127.186737 
	C85.252083,117.888550 86.777557,110.506432 95.916336,105.077194 
	C100.700195,102.235161 103.481277,96.050583 107.240356,91.435448 
	C108.217667,90.235580 109.440018,88.366592 110.602539,88.326317 
	C118.540581,88.051270 126.492699,88.182182 135.137833,88.182182 
	C135.137833,93.967339 135.137833,99.234665 135.137894,105.001732 
z"/>
<path fill="#F1872D" opacity="1.000000" stroke="none" 
	d="
M201.314758,116.267975 
	C200.862061,138.380493 200.281754,160.023071 200.081345,181.669174 
	C200.039627,186.175095 198.653778,187.459717 194.333008,187.104385 
	C189.726639,186.725571 185.064987,187.019104 179.397949,187.019104 
	C186.185623,161.296539 192.791748,136.261963 199.397873,111.227386 
	C199.913437,111.266205 200.429001,111.305016 200.944550,111.343834 
	C201.070374,112.828979 201.196213,114.314125 201.314758,116.267975 
z"/>
</svg>