<?xml version="1.0" standalone="no"?>
<!DOCTYPE svg PUBLIC "-//W3C//DTD SVG 20010904//EN"
 "http://www.w3.org/TR/2001/REC-SVG-20010904/DTD/svg10.dtd">
<svg version="1.0" xmlns="http://www.w3.org/2000/svg"
 width="331.000000pt" height="331.000000pt" viewBox="0 0 331.000000 331.000000"
 preserveAspectRatio="xMidYMid meet">

<g transform="translate(0.000000,331.000000) scale(0.100000,-0.100000)"
fill="#000000" stroke="none">
<path d="M280 3211 c-74 -23 -136 -78 -169 -151 -20 -45 -21 -59 -21 -1405 l0
-1360 24 -50 c29 -60 76 -107 136 -134 45 -20 59 -21 1405 -21 1346 0 1360 1
1405 21 60 27 107 74 136 134 l24 50 0 1360 c0 1346 -1 1360 -21 1405 -27 60
-74 107 -134 136 l-50 24 -1355 -1 c-745 0 -1366 -4 -1380 -8z m1904 -746 c89
-19 149 -55 180 -108 31 -53 56 -154 56 -229 l0 -58 -159 0 -158 0 -7 83 c-9
95 -24 127 -64 127 -65 -1 -72 -28 -72 -276 l0 -205 33 24 c66 50 98 61 177
61 137 -1 209 -62 239 -202 16 -76 14 -439 -4 -536 -25 -143 -70 -207 -181
-258 -44 -20 -64 -23 -189 -23 -158 0 -204 10 -267 58 -54 41 -92 110 -115
207 -16 66 -18 128 -18 530 0 499 4 551 55 656 42 87 112 136 220 154 75 13
201 10 274 -5z m-799 -795 l0 -785 -152 -3 -153 -3 0 581 0 581 -53 -40 c-45
-34 -113 -71 -132 -71 -3 0 -5 63 -5 139 l0 139 48 36 c65 47 135 124 161 175
l22 42 132 -3 132 -3 0 -785z"/>
<path d="M1984 1629 c-17 -19 -19 -41 -22 -268 -3 -285 0 -296 63 -296 66 0
70 18 70 295 0 209 -2 239 -18 263 -22 34 -65 36 -93 6z"/>
</g>
</svg>
