<?xml version="1.0" standalone="no"?>
<!DOCTYPE svg PUBLIC "-//W3C//DTD SVG 20010904//EN"
 "http://www.w3.org/TR/2001/REC-SVG-20010904/DTD/svg10.dtd">
<svg version="1.0" xmlns="http://www.w3.org/2000/svg"
 width="331.000000pt" height="331.000000pt" viewBox="0 0 331.000000 331.000000"
 preserveAspectRatio="xMidYMid meet">

<g transform="translate(0.000000,331.000000) scale(0.100000,-0.100000)"
fill="#000000" stroke="none">
<path d="M285 3216 c-89 -28 -132 -65 -178 -150 l-22 -41 0 -1370 0 -1370 22
-41 c34 -63 66 -97 125 -129 l53 -30 1344 -3 c1485 -3 1405 -6 1492 61 23 17
56 57 73 87 l31 55 0 1370 0 1370 -27 50 c-31 59 -67 94 -128 126 l-45 24
-1350 2 c-1070 1 -1358 -1 -1390 -11z m1929 -786 c145 -45 200 -150 201 -380
0 -145 -15 -203 -70 -268 -19 -22 -55 -50 -80 -62 -25 -12 -45 -25 -45 -29 0
-4 16 -13 36 -20 55 -20 118 -88 144 -157 21 -52 23 -77 24 -219 1 -189 -18
-271 -79 -342 -73 -86 -230 -127 -402 -104 -151 19 -244 84 -280 196 -25 77
-30 364 -8 440 29 101 74 155 161 191 l37 16 -54 29 c-94 50 -132 111 -149
232 -13 89 1 256 25 315 42 100 123 160 245 181 79 14 215 5 294 -19z m-824
-780 l0 -780 -150 0 -150 0 0 580 c0 326 -4 580 -9 580 -5 0 -15 -7 -22 -17
-18 -21 -107 -78 -136 -87 l-23 -7 0 135 0 135 43 29 c54 38 136 126 162 175
l20 37 132 0 133 0 0 -780z"/>
<path d="M1991 2253 c-16 -13 -25 -37 -33 -88 -12 -78 -5 -275 11 -317 21 -55
85 -61 118 -11 15 23 18 52 18 199 0 160 -2 175 -21 201 -25 34 -63 40 -93 16z"/>
<path d="M1979 1544 c-24 -25 -24 -27 -24 -244 0 -200 2 -220 19 -239 25 -27
86 -29 109 -3 25 28 37 111 36 251 0 161 -10 219 -39 243 -32 26 -72 23 -101
-8z"/>
</g>
</svg>
