<?xml version="1.0" standalone="no"?>
<!DOCTYPE svg PUBLIC "-//W3C//DTD SVG 20010904//EN"
 "http://www.w3.org/TR/2001/REC-SVG-20010904/DTD/svg10.dtd">
<svg version="1.0" xmlns="http://www.w3.org/2000/svg"
 width="331.000000pt" height="331.000000pt" viewBox="0 0 331.000000 331.000000"
 preserveAspectRatio="xMidYMid meet">

<g transform="translate(0.000000,331.000000) scale(0.100000,-0.100000)"
fill="#000000" stroke="none">
<path d="M263 3204 c-65 -24 -128 -86 -153 -150 -20 -55 -20 -61 -18 -1417 3
-1281 4 -1364 21 -1394 28 -52 77 -102 121 -126 l41 -22 1380 0 1380 0 41 22
c56 30 108 91 128 150 15 45 16 171 14 1409 l-3 1359 -22 41 c-24 44 -74 93
-126 121 -30 17 -112 18 -1397 20 -1186 1 -1370 0 -1407 -13z m2832 -52 c-3
-3 -11 0 -18 7 -9 10 -8 11 6 5 10 -3 15 -9 12 -12z m-1475 -1362 l0 -560 308
-2 307 -3 3 -137 3 -138 -511 0 -510 0 0 700 0 700 200 0 200 0 0 -560z m1465
-1628 c-3 -3 -11 0 -18 7 -9 10 -8 11 6 5 10 -3 15 -9 12 -12z"/>
</g>
</svg>
